# xmcd
#
# Track frame offsets: 
#        150
#        17099
#        38514
#        52735
#        67419
#        85114
#        107076
#        135307
#        152448
#        172098
#        194448
#        209706
#        223579
#        239844
#        261290
#
# Disc length: 3723 seconds
#
# Revision: 0
# Processed by: cddbd v1.5.2PL0 Copyright (c) Steve Scherf et al.
# Submitted via: ExactAudioCopyFreeDBPlugin 1.0
#
DISCID=d90e890f
DTITLE=John Campbelljohn - Double Down Blues
DYEAR=2018
DGENRE=Blues
TTITLE0=Double Down
TTITLE1=Snow Blow Boogie Jam
TTITLE2=Common Law Love
TTITLE3=You Stole My Joy
TTITLE4=Lay It On The Floor
TTITLE5=Whole Lotta Love
TTITLE6=Take A Look Around
TTITLE7=Love Is A Dream
TTITLE8=Leave It Be
TTITLE9=The Ballad Of John Camplejohn
TTITLE10=I Want To Be Lonely
TTITLE11=The Angry Man
TTITLE12=Captain Of My Ship
TTITLE13=Miles High
TTITLE14=Love The One You're With
EXTD=
EXTT0=
EXTT1=
EXTT2=
EXTT3=
EXTT4=
EXTT5=
EXTT6=
EXTT7=
EXTT8=
EXTT9=
EXTT10=
EXTT11=
EXTT12=
EXTT13=
EXTT14=
PLAYORDER=
